<svg width="99" height="12" viewBox="0 0 99 12" fill="none" xmlns="http://www.w3.org/2000/svg">
<path d="M1.45213 1.56273L1.45204 1.56267L1.44952 1.56665C1.08007 2.15114 0.87644 2.87397 0.87644 3.65381C0.87644 4.42409 1.0952 5.19874 1.52571 5.78349C1.95809 6.37076 2.60401 6.76528 3.44586 6.76528H9.71898C10.1343 6.76528 10.4335 6.98413 10.6338 7.32023C10.8361 7.65977 10.9333 8.11483 10.9333 8.56212C10.9333 8.98912 10.8364 9.41934 10.6395 9.73923C10.4447 10.0558 10.1553 10.2612 9.75881 10.2612H1.69337C1.31665 10.2612 1.03576 10.5631 1.03576 10.9283C1.03576 11.2958 1.33887 11.5954 1.69337 11.5954H9.73889C10.5297 11.5954 11.216 11.2264 11.6916 10.5767L11.6922 10.5759C12.0854 10.0272 12.2884 9.28191 12.2884 8.50346L12.2884 8.5021C12.2782 7.7524 12.0647 6.98831 11.6472 6.40883C11.2278 5.82673 10.6019 5.43109 9.77872 5.43109H3.42594C3.02151 5.43109 2.72706 5.21322 2.52883 4.87659C2.32875 4.53682 2.23149 4.08153 2.23149 3.63425C2.23149 3.1971 2.32862 2.75164 2.52614 2.41914C2.7219 2.08961 3.01148 1.87653 3.40603 1.87653H11.1329C11.5051 1.87653 11.8104 1.57925 11.8104 1.20943C11.8104 0.839611 11.5051 0.542334 11.1329 0.542334H3.38611C2.59564 0.542334 1.90833 0.91115 1.45213 1.56273Z" fill="#00AFEF" stroke="#00AFEF" stroke-width="0.2"/>
<path d="M14.1556 1.87449H18.4915V1.87528V1.8821V1.88892V1.89575V1.9026V1.90945V1.91632V1.9232V1.93009V1.93699V1.9439V1.95082V1.95775V1.9647V1.97165V1.97862V1.9856V1.99258V1.99958V2.00659V2.01361V2.02064V2.02769V2.03474V2.0418V2.04888V2.05596V2.06306V2.07016V2.07728V2.08441V2.09154V2.09869V2.10585V2.11302V2.1202V2.12739V2.13459V2.1418V2.14902V2.15626V2.1635V2.17075V2.17801V2.18529V2.19257V2.19986V2.20717V2.21448V2.2218V2.22914V2.23648V2.24384V2.2512V2.25857V2.26596V2.27335V2.28076V2.28817V2.29559V2.30303V2.31047V2.31792V2.32539V2.33286V2.34034V2.34784V2.35534V2.36285V2.37037V2.3779V2.38544V2.39299V2.40055V2.40812V2.4157V2.42329V2.43089V2.4385V2.44611V2.45374V2.46137V2.46902V2.47667V2.48434V2.49201V2.49969V2.50738V2.51508V2.52279V2.53051V2.53824V2.54598V2.55372V2.56148V2.56924V2.57702V2.5848V2.59259V2.60039V2.6082V2.61602V2.62385V2.63168V2.63953V2.64738V2.65524V2.66311V2.67099V2.67888V2.68678V2.69469V2.7026V2.71052V2.71846V2.7264V2.73435V2.7423V2.75027V2.75824V2.76623V2.77422V2.78222V2.79023V2.79824V2.80627V2.8143V2.82234V2.83039V2.83845V2.84652V2.85459V2.86267V2.87076V2.87886V2.88697V2.89509V2.90321V2.91134V2.91948V2.92763V2.93578V2.94394V2.95212V2.96029V2.96848V2.97668V2.98488V2.99309V3.00131V3.00953V3.01777V3.02601V3.03426V3.04251V3.05078V3.05905V3.06733V3.07561V3.08391V3.09221V3.10052V3.10884V3.11716V3.12549V3.13383V3.14218V3.15053V3.15889V3.16726V3.17564V3.18402V3.19241V3.20081V3.20921V3.21763V3.22605V3.23447V3.24291V3.25135V3.25979V3.26825V3.27671V3.28518V3.29365V3.30213V3.31062V3.31912V3.32762V3.33613V3.34465V3.35317V3.3617V3.37024V3.37878V3.38733V3.39589V3.40445V3.41302V3.4216V3.43018V3.43877V3.44737V3.45597V3.46458V3.4732V3.48182V3.49045V3.49908V3.50773V3.51637V3.52503V3.53369V3.54236V3.55103V3.55971V3.56839V3.57708V3.58578V3.59449V3.6032V3.61191V3.62063V3.62936V3.6381V3.64684V3.65558V3.66433V3.67309V3.68186V3.69062V3.6994V3.70818V3.71697V3.72576V3.73456V3.74336V3.75217V3.76099V3.76981V3.77864V3.78747V3.79631V3.80515V3.814V3.82286V3.83172V3.84058V3.84945V3.85833V3.86721V3.8761V3.88499V3.89389V3.90279V3.9117V3.92062V3.92954V3.93846V3.94739V3.95633V3.96526V3.97421V3.98316V3.99212V4.00108V4.01004V4.01901V4.02799V4.03697V4.04595V4.05494V4.06394V4.07293V4.08194V4.09095V4.09996V4.10898V4.11801V4.12703V4.13607V4.1451V4.15415V4.16319V4.17224V4.1813V4.19036V4.19943V4.2085V4.21757V4.22665V4.23573V4.24482V4.25391V4.26301V4.27211V4.28121V4.29032V4.29943V4.30855V4.31767V4.3268V4.33593V4.34506V4.3542V4.36335V4.37249V4.38164V4.3908V4.39996V4.40912V4.41829V4.42746V4.43663V4.44581V4.45499V4.46418V4.47337V4.48256V4.49176V4.50096V4.51016V4.51937V4.52859V4.5378V4.54702V4.55624V4.56547V4.5747V4.58393V4.59317V4.60241V4.61166V4.62091V4.63016V4.63941V4.64867V4.65793V4.66719V4.67646V4.68573V4.69501V4.70429V4.71357V4.72285V4.73214V4.74143V4.75072V4.76002V4.76932V4.77862V4.78793V4.79724V4.80655V4.81586V4.82518V4.8345V4.84382V4.85315V4.86248V4.87181V4.88114V4.89048V4.89982V4.90916V4.91851V4.92786V4.93721V4.94656V4.95592V4.96528V4.97464V4.984V4.99337V5.00274V5.01211V5.02148V5.03086V5.04023V5.04961V5.059V5.06838V5.07777V5.08716V5.09655V5.10595V5.11534V5.12474V5.13414V5.14355V5.15295V5.16236V5.17177V5.18118V5.19059V5.20001V5.20942V5.21884V5.22826V5.23769V5.24711V5.25654V5.26596V5.27539V5.28483V5.29426V5.3037V5.31313V5.32257V5.33201V5.34145V5.3509V5.36034V5.36979V5.37924V5.38869V5.39814V5.40759V5.41704V5.4265V5.43596V5.44542V5.45487V5.46434V5.4738V5.48326V5.49273V5.50219V5.51166V5.52113V5.5306V5.54007V5.54954V5.55901V5.56849V5.57796V5.58744V5.59691V5.60639V5.61587V5.62535V5.63483V5.64431V5.6538V5.66328V5.67276V5.68225V5.69173V5.70122V5.71071V5.72019V5.72968V5.73917V5.74866V5.75815V5.76764V5.77713V5.78663V5.79612V5.80561V5.8151V5.8246V5.83409V5.84359V5.85308V5.86258V5.87207V5.88157V5.89106V5.90056V5.91006V5.91955V5.92905V5.93855V5.94804V5.95754V5.96704V5.97653V5.98603V5.99553V6.00503V6.01452V6.02402V6.03352V6.04302V6.05251V6.06201V6.07151V6.081V6.0905V6.09999V6.10949V6.11898V6.12848V6.13797V6.14747V6.15696V6.16645V6.17721V6.18796V6.19871V6.20946V6.2202V6.23095V6.2417V6.25245V6.26319V6.27394V6.28468V6.29543V6.30617V6.31691V6.32765V6.3384V6.34914V6.35987V6.37061V6.38135V6.39208V6.40282V6.41355V6.42429V6.43502V6.44575V6.45648V6.4672V6.47793V6.48865V6.49938V6.5101V6.52082V6.53154V6.54226V6.55298V6.56369V6.5744V6.58512V6.59583V6.60654V6.61724V6.62795V6.63865V6.64935V6.66005V6.67075V6.68145V6.69214V6.70284V6.71353V6.72422V6.7349V6.74559V6.75627V6.76695V6.77763V6.78831V6.79898V6.80965V6.82032V6.83099V6.84165V6.85232V6.86298V6.87364V6.88429V6.89495V6.9056V6.91625V6.92689V6.93753V6.94818V6.95881V6.96945V6.98008V6.99071V7.00134V7.01196V7.02259V7.03321V7.04382V7.05444V7.06505V7.07565V7.08626V7.09686V7.10746V7.11805V7.12865V7.13923V7.14982V7.1604V7.17098V7.18156V7.19213V7.2027V7.21327V7.22383V7.23439V7.24495V7.2555V7.26605V7.2766V7.28714V7.29768V7.30821V7.31875V7.32927V7.3398V7.35032V7.36084V7.37135V7.38186V7.39236V7.40287V7.41336V7.42386V7.43435V7.44483V7.45532V7.46579V7.47627V7.48674V7.4972V7.50766V7.51812V7.52857V7.53902V7.54947V7.55991V7.57034V7.58078V7.5912V7.60162V7.61204V7.62246V7.63287V7.64327V7.65367V7.66407V7.67446V7.68484V7.69523V7.7056V7.71597V7.72634V7.7367V7.74706V7.75741V7.76776V7.77811V7.78844V7.79878V7.8091V7.81943V7.82975V7.84006V7.85037V7.86067V7.87097V7.88126V7.89155V7.90183V7.9121V7.92237V7.93264V7.9429V7.95315V7.9634V7.97365V7.98389V7.99412V8.00435V8.01457V8.02478V8.03499V8.0452V8.0554V8.06559V8.07578V8.08596V8.09613V8.1063V8.11647V8.12663V8.13678V8.14692V8.15706V8.1672V8.17732V8.18745V8.19756V8.20767V8.21777V8.22787V8.23796V8.24804V8.25812V8.26819V8.27826V8.28832V8.29837V8.30842V8.31846V8.32849V8.33852V8.34854V8.35855V8.36856V8.37856V8.38855V8.39853V8.40851V8.41849V8.42845V8.43841V8.44836V8.45831V8.46825V8.47818V8.4881V8.49802V8.50793V8.51783V8.52773V8.53762V8.5475V8.55738V8.56724V8.5771V8.58696V8.5968V8.60664V8.61647V8.62629V8.63611V8.64592V8.65572V8.66551V8.6753V8.68508V8.69485V8.70461V8.71436V8.72411V8.73385V8.74358V8.75331V8.76302V8.77273V8.78243V8.79212V8.80181V8.81149V8.82115V8.83082V8.84047V8.85011V8.85975V8.86938V8.879V8.88861V8.89821V8.90781V8.91739V8.92697V8.93654V8.9461V8.95566V8.9652V8.97474V8.98427V8.99379V9.0033V9.0128V9.02229V9.03178V9.04125V9.05072V9.06018V9.06963V9.07907V9.0885V9.09793V9.10734V9.11675V9.12614V9.13553V9.14491V9.15428V9.16364V9.17299V9.18233V9.19167V9.20099V9.2103V9.21961V9.22891V9.23819V9.24747V9.25674V9.266V9.27524V9.28448V9.29372V9.30294V9.31215V9.32135V9.33054V9.33972V9.3489V9.35806V9.36721V9.37635V9.38549V9.39461V9.40373V9.41283V9.42192V9.43101V9.44008V9.44915V9.4582V9.46725V9.47628V9.4853V9.49432V9.50332V9.51231V9.5213V9.53027V9.53923V9.54818V9.55713V9.56606V9.57498V9.58389V9.59279V9.60168V9.61056V9.61943V9.62829V9.63713V9.64597V9.6548V9.66361V9.67242V9.68121V9.68999V9.69876V9.70753V9.71628V9.72502V9.73374V9.74246V9.75117V9.75986V9.76855V9.77722V9.78588V9.79454V9.80317V9.8118V9.82042V9.82903V9.83762V9.84621V9.85478V9.86334V9.87189V9.88043V9.88895V9.89747V9.90597V9.91446V9.92294V9.93141V9.93987V9.94831V9.95675V9.96517V9.97358V9.98198V9.99036V9.99874V10.0071V10.0154V10.0238V10.0321V10.0404V10.0487V10.057V10.0653V10.0736V10.0818V10.0901V10.0983V10.1065V10.1147V10.1229V10.1311V10.1393V10.1474V10.1556V10.1637V10.1718V10.1799V10.188V10.1961V10.2042V10.2122V10.2203V10.2283V10.2363V10.2443V10.2523V10.2603V10.2682V10.2762V10.2841V10.2921V10.3V10.3079V10.3158V10.3236V10.3315V10.3394V10.3472V10.355V10.3628V10.3706V10.3784V10.3862V10.3939V10.4017V10.4094V10.4171V10.4248V10.4325V10.4402V10.4478V10.4555V10.4631V10.4708V10.4784V10.486V10.4935V10.5011V10.5087V10.5162V10.5237V10.5312V10.5387V10.5462V10.5537V10.5611V10.5686V10.576V10.5834V10.5908V10.5982V10.6056V10.6129V10.6203V10.6276V10.6349V10.6422V10.6495V10.6568V10.664V10.6713V10.6785V10.6857V10.6929V10.7001V10.7073V10.7144V10.7216V10.7287V10.7358V10.7429V10.75V10.7571V10.7641V10.7711V10.7782V10.7852V10.7922V10.7991V10.8061V10.8131V10.82V10.8269V10.8338V10.8407V10.8476V10.8544V10.8613V10.8681V10.8749V10.8817V10.8885V10.8953V10.902V10.9087V10.9155V10.9222V10.9288V10.9355V10.9422V10.9488C18.4915 11.3247 18.8095 11.5954 19.1816 11.5954C19.5561 11.5954 19.8717 11.3029 19.8717 10.9488V1.87449H24.1873C24.5642 1.87449 24.8774 1.57983 24.8774 1.20841C24.8774 0.836987 24.5642 0.542334 24.1873 0.542334H14.1556C13.7787 0.542334 13.4655 0.836987 13.4655 1.20841C13.4655 1.57983 13.7787 1.87449 14.1556 1.87449Z" fill="#00AFEF" stroke="#00AFEF" stroke-width="0.2"/>
<path d="M27.434 9.08577V1.21045C27.434 0.838413 27.1217 0.542334 26.745 0.542334C26.3682 0.542334 26.056 0.838412 26.056 1.21045V9.08577C26.056 9.74458 26.3703 10.3718 26.8482 10.8327C27.3262 11.2938 27.9747 11.5954 28.6541 11.5954H34.8688C36.2407 11.5954 37.4669 10.4177 37.4669 9.08577V1.21354C37.4893 0.836741 37.1722 0.542334 36.7982 0.542334C36.4214 0.542334 36.1092 0.838413 36.1092 1.21045V9.08577C36.1092 9.37582 35.9626 9.66942 35.7289 9.89255C35.4955 10.1154 35.1842 10.2591 34.8688 10.2591H28.6744C28.3696 10.2591 28.0581 10.1158 27.8215 9.8922C27.5848 9.66844 27.434 9.37485 27.434 9.08577Z" fill="#00AFEF" stroke="#00AFEF" stroke-width="0.2"/>
<path d="M47.4427 0.542334H39.5358C39.0362 0.542334 38.6451 0.917812 38.6451 1.42454V10.7132C38.6451 11.1987 39.0346 11.5954 39.5358 11.5954H47.4427C48.8118 11.5954 50.0568 10.4007 50.0568 9.09011V3.06794C50.0672 2.40895 49.7473 1.77772 49.2632 1.31326C48.7787 0.848479 48.1212 0.542334 47.4427 0.542334ZM47.463 10.2416H47.4552H47.4473H47.4395H47.4317H47.4238H47.416H47.4081H47.4003H47.3925H47.3846H47.3768H47.369H47.3611H47.3533H47.3455H47.3376H47.3298H47.322H47.3141H47.3063H47.2985H47.2906H47.2828H47.275H47.2672H47.2593H47.2515H47.2437H47.2358H47.228H47.2202H47.2124H47.2045H47.1967H47.1889H47.1811H47.1732H47.1654H47.1576H47.1498H47.1419H47.1341H47.1263H47.1185H47.1107H47.1028H47.095H47.0872H47.0794H47.0716H47.0637H47.0559H47.0481H47.0403H47.0325H47.0247H47.0168H47.009H47.0012H46.9934H46.9856H46.9778H46.97H46.9621H46.9543H46.9465H46.9387H46.9309H46.9231H46.9153H46.9075H46.8997H46.8918H46.884H46.8762H46.8684H46.8606H46.8528H46.845H46.8372H46.8294H46.8216H46.8138H46.806H46.7982H46.7904H46.7826H46.7748H46.767H46.7591H46.7513H46.7435H46.7357H46.7279H46.7201H46.7123H46.7045H46.6967H46.6889H46.6811H46.6733H46.6655H46.6578H46.65H46.6422H46.6344H46.6266H46.6188H46.611H46.6032H46.5954H46.5876H46.5798H46.572H46.5642H46.5564H46.5486H46.5408H46.533H46.5252H46.5175H46.5097H46.5019H46.4941H46.4863H46.4785H46.4707H46.4629H46.4551H46.4474H46.4396H46.4318H46.424H46.4162H46.4084H46.4006H46.3928H46.3851H46.3773H46.3695H46.3617H46.3539H46.3461H46.3384H46.3306H46.3228H46.315H46.3072H46.2994H46.2917H46.2839H46.2761H46.2683H46.2605H46.2528H46.245H46.2372H46.2294H46.2216H46.2139H46.2061H46.1983H46.1905H46.1828H46.175H46.1672H46.1594H46.1517H46.1439H46.1361H46.1283H46.1206H46.1128H46.105H46.0972H46.0895H46.0817H46.0739H46.0661H46.0584H46.0506H46.0428H46.0351H46.0273H46.0195H46.0117H46.004H45.9962H45.9884H45.9807H45.9729H45.9651H45.9574H45.9496H45.9418H45.9341H45.9263H45.9185H45.9108H45.903H45.8952H45.8875H45.8797H45.8719H45.8642H45.8564H45.8486H45.8409H45.8331H45.8254H45.8176H45.8098H45.8021H45.7943H45.7865H45.7788H45.771H45.7633H45.7555H45.7477H45.74H45.7322H45.7245H45.7167H45.7089H45.7012H45.6934H45.6857H45.6779H45.6702H45.6624H45.6546H45.6469H45.6391H45.6314H45.6236H45.6159H45.6081H45.6003H45.5926H45.5848H45.5771H45.5693H45.5616H45.5538H45.5461H45.5383H45.5306H45.5228H45.515H45.5073H45.4995H45.4918H45.484H45.4763H45.4685H45.4608H45.453H45.4453H45.4375H45.4298H45.422H45.4143H45.4065H45.3988H45.391H45.3833H45.3755H45.3678H45.36H45.3523H45.3445H45.3368H45.329H45.3213H45.3136H45.3058H45.2981H45.2903H45.2826H45.2748H45.2671H45.2593H45.2516H45.2438H45.2361H45.2283H45.2206H45.2129H45.2051H45.1974H45.1896H45.1819H45.1741H45.1664H45.1587H45.1509H45.1432H45.1354H45.1277H45.1199H45.1122H45.1045H45.0967H45.089H45.0812H45.0735H45.0658H45.058H45.0503H45.0425H45.0348H45.0271H45.0193H45.0116H45.0038H44.9961H44.9884H44.9806H44.9729H44.9651H44.9574H44.9497H44.9419H44.9342H44.9265H44.9187H44.911H44.9032H44.8955H44.8878H44.88H44.8723H44.8646H44.8568H44.8491H44.8414H44.8336H44.8259H44.8181H44.8104H44.8027H44.7949H44.7872H44.7795H44.7717H44.764H44.7563H44.7485H44.7408H44.7331H44.7253H44.7176H44.7099H44.7021H44.6944H44.6867H44.6789H44.6712H44.6635H44.6557H44.648H44.6403H44.6325H44.6248H44.6171H44.6094H44.6016H44.5939H44.5862H44.5784H44.5707H44.563H44.5552H44.5475H44.5398H44.532H44.5243H44.5166H44.5089H44.5011H44.4934H44.4857H44.4779H44.4702H44.4625H44.4548H44.447H44.4393H44.4316H44.4238H44.4161H44.4084H44.4007H44.3929H44.3852H44.3775H44.3697H44.362H44.3543H44.3466H44.3388H44.3311H44.3234H44.3157H44.3079H44.3002H44.2925H44.2847H44.277H44.2693H44.2616H44.2538H44.2461H44.2384H44.2307H44.2229H44.2152H44.2075H44.1998H44.192H44.1843H44.1766H44.1689H44.1611H44.1534H44.1457H44.138H44.1302H44.1225H44.1148H44.1071H44.0993H44.0916H44.0839H44.0762H44.0684H44.0607H44.053H44.0453H44.0375H44.0298H44.0221H44.0144H44.0066H43.9989H43.9912H43.9835H43.9758H43.968H43.9603H43.9526H43.9449H43.9371H43.9294H43.9217H43.914H43.9062H43.8985H43.8908H43.8831H43.8754H43.8676H43.8599H43.8522H43.8445H43.8367H43.829H43.8213H43.8136H43.8059H43.7981H43.7904H43.7827H43.775H43.7672H43.7595H43.7518H43.7441H43.7364H43.7286H43.7209H43.7132H43.7055H43.6977H43.69H43.6823H43.6746H43.6669H43.6591H43.6514H43.6437H43.636H43.6282H43.6205H43.6128H43.6051H43.5974H43.5896H43.5819H43.5742H43.5665H43.5587H43.551H43.5433H43.5356H43.5279H43.5201H43.5124H43.5047H43.497H43.4893H43.4824H43.4755H43.4686H43.4617H43.4548H43.4479H43.441H43.4341H43.4272H43.4203H43.4134H43.4065H43.3996H43.3927H43.3858H43.379H43.3721H43.3652H43.3583H43.3514H43.3445H43.3376H43.3307H43.3238H43.3169H43.31H43.3031H43.2962H43.2892H43.2823H43.2754H43.2685H43.2616H43.2547H43.2478H43.2409H43.234H43.2271H43.2202H43.2133H43.2064H43.1995H43.1926H43.1857H43.1787H43.1718H43.1649H43.158H43.1511H43.1442H43.1373H43.1304H43.1234H43.1165H43.1096H43.1027H43.0958H43.0889H43.082H43.075H43.0681H43.0612H43.0543H43.0474H43.0405H43.0335H43.0266H43.0197H43.0128H43.0059H42.9989H42.992H42.9851H42.9782H42.9713H42.9643H42.9574H42.9505H42.9436H42.9366H42.9297H42.9228H42.9159H42.9089H42.902H42.8951H42.8882H42.8812H42.8743H42.8674H42.8604H42.8535H42.8466H42.8397H42.8327H42.8258H42.8189H42.8119H42.805H42.7981H42.7911H42.7842H42.7773H42.7703H42.7634H42.7565H42.7495H42.7426H42.7357H42.7287H42.7218H42.7149H42.7079H42.701H42.6941H42.6871H42.6802H42.6732H42.6663H42.6594H42.6524H42.6455H42.6385H42.6316H42.6247H42.6177H42.6108H42.6038H42.5969H42.5899H42.583H42.5761H42.5691H42.5622H42.5552H42.5483H42.5413H42.5344H42.5274H42.5205H42.5136H42.5066H42.4997H42.4927H42.4858H42.4788H42.4719H42.4649H42.458H42.451H42.4441H42.4371H42.4302H42.4232H42.4163H42.4093H42.4024H42.3954H42.3885H42.3815H42.3746H42.3676H42.3607H42.3537H42.3467H42.3398H42.3328H42.3259H42.3189H42.312H42.305H42.2981H42.2911H42.2841H42.2772H42.2702H42.2633H42.2563H42.2494H42.2424H42.2354H42.2285H42.2215H42.2146H42.2076H42.2006H42.1937H42.1867H42.1798H42.1728H42.1658H42.1589H42.1519H42.1449H42.138H42.131H42.1241H42.1171H42.1101H42.1032H42.0962H42.0892H42.0823H42.0753H42.0683H42.0614H42.0544H42.0474H42.0405H42.0335H42.0265H42.0196H42.0126H42.0056H41.9987H41.9917H41.9847H41.9777H41.9708H41.9638H41.9568H41.9499H41.9429H41.9359H41.929H41.922H41.915H41.908H41.9011H41.8941H41.8871H41.8801H41.8732H41.8662H41.8592H41.8522H41.8453H41.8383H41.8313H41.8243H41.8174H41.8104H41.8034H41.7964H41.7895H41.7825H41.7755H41.7685H41.7616H41.7546H41.7476H41.7406H41.7336H41.7267H41.7197H41.7127H41.7057H41.6988H41.6918H41.6848H41.6778H41.6708H41.6639H41.6569H41.6499H41.6429H41.6359H41.6289H41.622H41.615H41.608H41.601H41.594H41.587H41.5801H41.5731H41.5661H41.5591H41.5521H41.5451H41.5382H41.5312H41.5242H41.5172H41.5102H41.5032H41.4962H41.4893H41.4823H41.4753H41.4683H41.4613H41.4543H41.4473H41.4404H41.4334H41.4264H41.4194H41.4124H41.4054H41.3984H41.3914H41.3844H41.3775H41.3705H41.3635H41.3565H41.3495H41.3425H41.3355H41.3285H41.3215H41.3145H41.3076H41.3006H41.2936H41.2866H41.2796H41.2726H41.2656H41.2586H41.2516H41.2446H41.2376H41.2306H41.2237H41.2167H41.2097H41.2027H41.1957H41.1887H41.1817H41.1747H41.1677H41.1607H41.1537H41.1467H41.1397H41.1327H41.1257H41.1187H41.1117H41.1047H41.0977H41.0907H41.0838H41.0768H41.0698H41.0628H41.0558H41.0488H41.0418H41.0348H41.0278H41.0208H41.0138H41.0068H40.9998H40.9928H40.9858H40.9788H40.9718H40.9648H40.9578H40.9508H40.9438H40.9368H40.9298H40.9228H40.9158H40.9088H40.9018H40.8948H40.8878H40.8808H40.8738H40.8668H40.8598H40.8528H40.8458H40.8388H40.8318H40.8248H40.8178H40.8108H40.8038H40.7968H40.7898H40.7828H40.7758H40.7688H40.7618H40.7548H40.7478H40.7408H40.7338H40.7268H40.7198H40.7128H40.7058H40.6987H40.6917H40.6847H40.6777H40.6707H40.6637H40.6567H40.6497H40.6427H40.6357H40.6287H40.6217H40.6147H40.6077H40.6007H40.5937H40.5867H40.5797H40.5727H40.5657H40.5587H40.5517H40.5447H40.5376H40.5306H40.5236H40.5166H40.5096H40.5026H40.4956H40.4886H40.4816H40.4746H40.4676H40.4606H40.4536H40.4466H40.4396H40.4326H40.4256H40.4185H40.4115H40.4045H40.3975H40.3905H40.3835H40.3765H40.3695H40.3625H40.3555H40.3485H40.3415H40.3345H40.3275H40.3204H40.3134H40.3064H40.2994H40.2924H40.2854H40.2784H40.2714H40.2644H40.2574H40.2504H40.2434H40.2364H40.2293H40.2223H40.2153H40.2083H40.2013H40.1943H40.1873H40.1803H40.1733H40.1663H40.1593H40.1523H40.1452H40.1382H40.1312H40.1242H40.1172H40.1102H40.1032H40.0962H40.0892H40.0822H40.0752H40.0682H40.0611H40.0541H40.0471H40.0401H40.0331H40.0261H40.021V1.87653H47.4427C47.7459 1.87653 48.0565 2.02364 48.2929 2.25392C48.5293 2.48425 48.6808 2.78733 48.6808 3.08671V9.07055C48.6808 9.3601 48.5344 9.65326 48.3034 9.87611C48.0726 10.0988 47.767 10.2416 47.463 10.2416Z" fill="#00AFEF" stroke="#00AFEF" stroke-width="0.2"/>
<path d="M52.4069 0.74593L52.4069 0.74593L52.4066 0.745625C52.2673 0.612811 52.0999 0.542334 51.928 0.542334C51.648 0.542334 51.3807 0.698263 51.2816 0.958045C51.1871 1.20581 51.2325 1.48389 51.4288 1.67105C51.4288 1.6711 51.4289 1.67115 51.4289 1.6712L56.2518 6.30664V10.9488C56.2518 11.3253 56.5722 11.5954 56.9457 11.5954C57.3217 11.5954 57.6397 11.3035 57.6397 10.9488V6.30664L62.4421 1.69072C62.4421 1.69068 62.4422 1.69065 62.4422 1.69062C62.6296 1.51191 62.709 1.21676 62.5897 0.976932C62.51 0.69525 62.2394 0.542334 61.9635 0.542334C61.7761 0.542334 61.6051 0.609531 61.4816 0.748798L56.9457 5.11029L52.4069 0.74593Z" fill="#00AFEF" stroke="#00AFEF" stroke-width="0.2"/>
<path d="M74.3694 10.4707L69.5114 5.74394L74.3251 1.73054L74.3251 1.73058L74.3278 1.72819C74.5247 1.55168 74.6237 1.27564 74.5087 1.01448C74.4167 0.742989 74.1676 0.561784 73.8753 0.561784C73.717 0.561784 73.5786 0.608819 73.4448 0.721169C73.4447 0.721238 73.4446 0.721307 73.4445 0.721376L65.1418 7.64466V1.22583C65.1418 0.842988 64.8493 0.542334 64.4825 0.542334C64.1156 0.542334 63.8231 0.842988 63.8231 1.22583V10.9119C63.8231 11.2947 64.1156 11.5954 64.4825 11.5954C64.8493 11.5954 65.1418 11.2947 65.1418 10.9119V9.34456L68.4887 6.57283L73.439 11.4113L73.4388 11.4115L73.4445 11.4163C73.5736 11.5248 73.7306 11.5954 73.8946 11.5954C74.1673 11.5954 74.3924 11.4348 74.5042 11.1915C74.646 10.9476 74.5647 10.6676 74.3706 10.4719L74.2996 10.5423L74.3694 10.4707Z" fill="#FFA13E" stroke="#FFA13E" stroke-width="0.2"/>
<path d="M76.401 1.84401H80.5134V10.2937H76.401C76.0585 10.2937 75.8039 10.5721 75.8039 10.9098C75.8039 11.0601 75.868 11.2065 75.9491 11.3279L75.9488 11.3281L75.9523 11.3322C76.0596 11.4608 76.23 11.5454 76.4206 11.5454H85.8396C86.1798 11.5454 86.4563 11.2693 86.4563 10.9293C86.4563 10.5721 86.2016 10.2937 85.8396 10.2937H81.7273V1.82449H85.8396C86.1798 1.82449 86.4563 1.54839 86.4563 1.20841C86.4563 0.868426 86.1798 0.592334 85.8396 0.592334H76.4206C76.2315 0.592334 76.0809 0.656306 75.954 0.803534C75.8446 0.913699 75.8039 1.06473 75.8039 1.22793C75.8039 1.56559 76.0585 1.84401 76.401 1.84401Z" fill="#FFA13E" stroke="#FFA13E" stroke-width="0.1"/>
<path d="M98.2294 10.4707L93.3714 5.74394L98.1851 1.73054L98.1851 1.73058L98.1878 1.72819C98.3847 1.55168 98.4837 1.27564 98.3687 1.01448C98.2767 0.742989 98.0276 0.561784 97.7353 0.561784C97.577 0.561784 97.4385 0.608849 97.3046 0.72128C97.3046 0.721312 97.3046 0.721344 97.3045 0.721376L89.0018 7.64465V1.22583C89.0018 0.842988 88.7093 0.542334 88.3425 0.542334C87.9757 0.542334 87.6831 0.842988 87.6831 1.22583V10.9119C87.6831 11.2947 87.9757 11.5954 88.3425 11.5954C88.7093 11.5954 89.0018 11.2947 89.0018 10.9119V9.34456L92.3487 6.57283L97.299 11.4113L97.2988 11.4115L97.3045 11.4163C97.4336 11.5248 97.5907 11.5954 97.7546 11.5954C98.0273 11.5954 98.2524 11.4348 98.3642 11.1915C98.506 10.9476 98.4247 10.6676 98.2306 10.4719L98.1596 10.5423L98.2294 10.4707Z" fill="#FFA13E" stroke="#FFA13E" stroke-width="0.2"/>
</svg>
